<?xml version="1.0" standalone="no"?>
<!DOCTYPE svg PUBLIC "-//W3C//DTD SVG 20010904//EN"
 "http://www.w3.org/TR/2001/REC-SVG-20010904/DTD/svg10.dtd">
<svg version="1.0" xmlns="http://www.w3.org/2000/svg"
 width="1920.000000pt" height="2400.000000pt" viewBox="0 0 1920.000000 2400.000000"
 preserveAspectRatio="xMidYMid meet">

<g transform="translate(0.000000,2400.000000) scale(0.100000,-0.100000)"
fill="#000000" stroke="none">
<path d="M12940 23974 c-25 -15 -82 -48 -128 -75 -45 -27 -85 -49 -88 -49 -2
0 -17 -8 -32 -19 -33 -22 -210 -126 -437 -256 -152 -87 -251 -145 -310 -182
-11 -7 -38 -22 -60 -33 -22 -11 -56 -30 -75 -42 -19 -11 -80 -45 -135 -75 -55
-31 -119 -68 -143 -84 -24 -16 -45 -29 -48 -29 -2 0 -21 -11 -42 -24 -20 -12
-84 -50 -142 -83 -140 -81 -437 -253 -700 -406 -118 -68 -235 -135 -260 -149
-131 -72 -173 -96 -256 -150 -50 -32 -94 -58 -97 -58 -3 0 -74 -40 -158 -90
-83 -49 -152 -90 -154 -90 -3 0 -229 -129 -385 -220 -69 -40 -161 -94 -205
-119 -44 -25 -88 -50 -97 -56 -9 -5 -54 -30 -100 -54 -46 -24 -128 -71 -183
-105 -147 -92 -203 -125 -275 -166 -67 -38 -473 -274 -500 -291 -184 -112
-404 -222 -429 -214 -14 4 -20 -1 -24 -22 -5 -24 -36 -45 -217 -148 -268 -153
-390 -230 -390 -248 0 -8 11 -22 24 -30 19 -13 25 -28 30 -80 10 -88 49 -152
128 -213 319 -242 306 -228 243 -258 -19 -9 -37 -21 -40 -26 -3 -6 -15 -10
-26 -10 -11 0 -50 -19 -87 -41 -106 -66 -178 -107 -302 -172 -63 -33 -128 -69
-145 -79 -16 -10 -59 -33 -95 -51 -88 -45 -223 -118 -235 -127 -5 -4 -55 -31
-110 -60 -55 -29 -127 -67 -160 -86 -137 -75 -299 -160 -435 -226 -80 -39
-156 -78 -170 -88 -14 -10 -65 -39 -115 -65 -49 -26 -124 -66 -165 -88 -41
-22 -142 -73 -225 -114 -82 -41 -166 -82 -185 -92 -374 -197 -606 -316 -649
-332 -18 -7 -49 -23 -70 -37 -37 -25 -177 -102 -376 -207 -60 -31 -175 -92
-255 -135 -228 -122 -305 -162 -455 -240 -77 -40 -172 -90 -212 -111 -40 -22
-78 -39 -85 -39 -8 0 -36 -15 -63 -33 -46 -30 -115 -68 -340 -187 -44 -23
-154 -82 -245 -130 -385 -206 -696 -364 -769 -391 -18 -7 -45 -22 -60 -34 -25
-21 -106 -65 -466 -250 -370 -191 -440 -228 -449 -236 -6 -5 -5 -17 1 -31 7
-13 14 -63 16 -111 4 -76 3 -89 -12 -94 -31 -9 -76 -36 -91 -53 -8 -10 -61
-41 -117 -70 l-103 -51 0 -7880 0 -7879 2775 0 c2635 0 2776 1 2781 18 3 9 10
25 16 36 7 13 6 21 -2 26 -7 4 -13 43 -15 96 -2 49 -8 104 -14 123 -8 25 -7
38 0 48 6 7 9 19 6 28 -4 8 -2 17 4 20 5 4 6 12 2 18 -4 7 -9 46 -10 87 -1 41
-3 77 -4 80 -1 3 -4 48 -5 100 -2 52 -4 111 -5 130 -1 19 1 55 5 80 12 78 13
105 2 118 -6 8 -6 16 0 20 5 4 10 137 12 312 1 168 3 347 5 398 1 50 -2 92 -6
92 -5 0 -6 4 -2 9 3 5 8 137 10 293 6 317 12 514 19 573 2 22 0 45 -5 51 -6 7
-4 16 6 24 12 10 13 16 4 26 -8 10 -8 18 -1 27 12 15 20 106 9 110 -5 1 -4 14
1 27 7 19 8 246 1 270 -1 3 -1 9 0 14 1 4 3 35 5 68 2 32 6 62 9 65 3 3 2 16
-3 28 -6 16 -5 25 3 28 9 3 9 7 -1 19 -8 10 -10 24 -4 39 4 13 6 38 5 54 -1
17 -2 77 -2 135 0 58 -1 123 -2 145 -1 22 -1 47 0 55 1 8 2 111 3 228 0 117 4
214 8 217 5 3 5 18 0 34 -4 16 -6 32 -4 34 3 3 7 94 8 203 2 110 7 214 11 232
5 20 4 32 -3 32 -7 0 -8 11 -4 28 7 27 8 95 2 189 -3 32 1 57 9 67 10 12 11
19 2 30 -9 11 -9 19 1 36 11 17 11 22 -1 29 -7 5 -11 14 -7 20 10 16 14 192 5
223 -5 18 -3 29 4 32 9 3 9 7 1 13 -9 6 -12 58 -4 58 8 0 4 192 -3 202 -5 7
-6 13 -1 13 10 0 11 309 2 325 -7 14 -1 226 7 247 4 10 5 23 2 30 -2 7 0 21 5
32 6 12 6 22 0 28 -6 6 -7 22 -4 37 4 14 7 101 7 193 0 93 2 168 5 168 3 0 5
43 6 95 0 77 4 98 19 115 15 17 16 20 2 20 -13 0 -15 10 -12 56 2 33 9 60 17
65 10 7 10 9 1 9 -7 0 -13 11 -13 24 0 22 3 24 28 16 35 -11 238 -88 277 -105
17 -8 120 -50 230 -94 110 -44 259 -105 330 -134 l130 -54 1 -179 c1 -98 -2
-184 -7 -190 -5 -6 -49 -26 -98 -43 -88 -32 -89 -32 -94 -69 -2 -20 0 -46 6
-56 5 -11 7 -63 3 -124 -5 -103 -12 -121 -43 -122 -28 0 -8 -17 75 -65 l87
-50 5 -100 5 -100 28 3 27 3 0 -94 c0 -108 10 -122 57 -83 16 12 35 25 44 28
20 8 29 50 29 140 0 53 4 70 16 75 8 3 13 12 9 21 -3 8 9 33 30 58 27 33 32
43 19 46 -12 2 -9 12 17 51 31 48 93 86 168 104 14 3 44 14 66 24 22 10 132
52 245 94 113 42 288 109 390 147 102 39 244 93 315 120 72 27 140 52 153 55
13 3 26 12 29 19 3 8 9 11 14 8 9 -5 73 13 94 27 6 3 23 9 39 13 25 6 172 61
231 86 11 5 81 30 155 55 74 26 173 62 220 81 47 18 130 49 185 69 104 37 186
70 219 87 11 6 33 12 50 15 17 2 39 13 49 25 9 11 17 16 17 10 0 -6 30 1 68
15 37 14 122 45 190 69 67 24 131 48 141 53 10 6 49 21 87 34 67 24 283 104
394 145 30 12 129 48 220 81 91 33 232 85 314 116 82 30 151 55 152 55 1 0 18
-23 38 -50 41 -58 39 -79 -4 -53 -43 25 -47 10 -10 -37 35 -44 54 -50 70 -20
6 11 34 27 66 37 59 18 74 33 116 118 26 51 27 75 4 75 -7 0 -21 9 -31 20 -10
11 -27 22 -39 26 -11 4 -40 23 -64 42 -28 23 -46 32 -53 25 -11 -11 -69 -5
-69 7 0 12 28 20 47 13 11 -4 14 -3 9 5 -10 16 -20 15 -77 -10 -37 -15 -47
-24 -37 -30 9 -6 3 -8 -15 -3 -18 4 -26 2 -22 -4 7 -12 -39 -26 -54 -16 -6 3
-11 1 -11 -5 0 -16 -42 -49 -63 -50 -9 0 -34 -9 -54 -20 -20 -10 -40 -17 -44
-14 -5 2 -18 -5 -30 -17 -14 -14 -29 -19 -45 -16 -13 2 -29 -2 -35 -9 -6 -7
-24 -16 -40 -19 -16 -4 -29 -10 -29 -13 0 -4 -15 -12 -32 -18 -71 -24 -135
-48 -174 -66 -22 -10 -48 -18 -57 -18 -9 0 -17 -4 -17 -9 0 -5 -15 -11 -32
-15 -18 -4 -51 -15 -73 -25 -55 -25 -78 -35 -90 -36 -5 0 -17 -5 -25 -10 -17
-11 -70 -32 -120 -47 -19 -5 -40 -14 -46 -19 -6 -5 -14 -6 -18 -2 -4 4 -10 3
-14 -3 -4 -6 -41 -23 -82 -38 -41 -15 -97 -36 -125 -47 -27 -11 -81 -32 -120
-46 -38 -14 -79 -29 -90 -34 -11 -5 -47 -18 -80 -29 -33 -12 -69 -25 -80 -30
-27 -12 -131 -49 -175 -62 -19 -6 -53 -18 -75 -28 -33 -16 -165 -64 -200 -74
-5 -2 -32 -13 -60 -26 -27 -12 -57 -23 -65 -23 -8 0 -19 -3 -25 -7 -10 -8
-101 -44 -202 -81 -29 -10 -78 -28 -108 -39 -128 -47 -244 -90 -270 -101 -11
-5 -49 -18 -85 -29 -36 -12 -78 -27 -95 -34 -16 -7 -57 -23 -90 -35 -117 -44
-140 -53 -157 -62 -10 -5 -25 -9 -33 -9 -9 0 -37 -9 -62 -21 -25 -11 -61 -23
-79 -26 -19 -3 -34 -10 -34 -14 0 -5 -8 -9 -18 -9 -10 0 -21 -3 -25 -6 -6 -7
-186 -70 -322 -114 -49 -16 -98 -34 -107 -39 -12 -7 -18 -7 -21 2 -3 8 -10 5
-20 -8 -14 -17 -19 -18 -37 -7 -14 9 -26 10 -38 3 -15 -9 -14 -11 8 -12 l25
-1 -25 -7 c-14 -4 -28 -3 -32 3 -4 6 -15 6 -33 -2 -34 -16 -55 -15 -55 1 0 12
69 98 189 237 31 36 63 79 71 95 18 39 80 105 98 105 8 0 26 7 40 15 15 8 62
28 105 46 42 17 77 35 77 39 0 5 16 14 35 20 37 12 61 42 49 61 -4 6 -2 14 3
18 14 9 25 61 14 61 -6 0 -8 6 -5 14 3 8 0 17 -6 21 -8 5 -8 11 1 21 9 11 9
17 -1 29 -8 9 -10 25 -5 42 18 70 24 291 40 1503 3 217 7 541 10 720 2 179 7
492 10 695 3 204 8 483 10 620 3 138 7 363 10 500 14 771 21 1045 30 1201 8
139 19 456 30 884 3 124 8 272 10 330 3 58 7 215 11 350 6 236 6 246 -14 263
-20 18 -72 15 -72 -3 0 -5 -12 -8 -27 -7 -21 2 -32 11 -45 37 -22 44 -24 90
-3 90 8 0 15 -5 15 -11 0 -22 60 1 386 152 373 172 416 191 569 261 61 27 151
69 200 93 50 24 137 64 195 90 58 26 110 51 115 55 6 5 37 19 70 33 33 14 103
46 155 70 316 149 613 287 730 339 142 63 178 79 325 148 137 64 223 99 229
92 13 -12 5 -43 -11 -49 -10 -3 -153 -69 -318 -146 -165 -77 -352 -163 -415
-192 -63 -29 -151 -70 -195 -90 -44 -21 -136 -63 -205 -95 -69 -32 -168 -78
-220 -103 -441 -209 -933 -437 -944 -437 -2 0 -44 -19 -93 -42 -48 -23 -169
-79 -268 -124 -99 -46 -181 -89 -182 -96 -2 -7 43 -65 98 -128 56 -63 120
-137 143 -164 102 -121 97 -117 113 -104 12 10 18 9 29 -6 11 -15 12 -88 9
-385 -2 -201 -7 -715 -10 -1141 -3 -426 -8 -957 -11 -1180 -3 -223 -6 -412 -5
-420 2 -37 0 -118 -3 -145 -2 -16 1 -33 6 -36 7 -4 7 -13 0 -25 -6 -12 -10
-184 -11 -439 -1 -231 -4 -790 -7 -1243 -5 -750 -5 -822 10 -816 13 5 16 24
17 108 0 55 2 299 4 541 8 1149 16 2005 20 2160 2 94 7 611 11 1150 3 539 8
1009 9 1045 2 36 4 191 6 345 3 340 6 395 24 395 14 0 34 -45 44 -100 11 -64
-1 -1873 -24 -3350 -7 -474 -18 -2260 -14 -2260 2 0 38 14 79 31 41 17 98 37
125 44 28 8 138 48 245 90 107 42 238 92 290 111 52 20 163 62 245 94 83 33
328 127 545 210 217 83 442 169 500 192 165 64 254 98 263 98 4 0 7 -20 7 -45
0 -44 -2 -46 -42 -64 -49 -22 -140 -57 -248 -96 -41 -15 -99 -38 -128 -51 -29
-13 -57 -24 -63 -24 -6 0 -20 -5 -32 -12 -12 -7 -30 -13 -39 -15 -10 -2 -37
-11 -60 -22 -24 -10 -61 -25 -83 -34 -164 -65 -224 -87 -237 -87 -7 0 -24 -7
-36 -16 -22 -15 -23 -19 -21 -215 1 -182 2 -200 17 -194 10 4 77 29 150 56 73
27 197 73 275 103 215 82 523 196 531 196 4 0 6 -7 4 -16 -2 -11 -152 -72
-488 -198 l-485 -182 -2 -92 c-2 -86 -1 -92 17 -92 11 0 20 5 20 10 0 6 10 10
23 10 13 0 145 45 293 101 300 112 616 229 621 229 2 0 3 -8 3 -18 0 -14 -29
-29 -132 -66 -246 -89 -722 -267 -806 -301 -42 -17 -44 -20 -37 -49 4 -17 7
-40 8 -51 1 -11 12 -24 25 -30 13 -6 22 -18 22 -32 0 -13 4 -23 9 -23 12 0
408 146 531 196 19 8 79 29 132 48 54 18 103 38 110 43 7 5 112 47 233 93 121
46 258 99 305 117 47 19 150 52 230 73 137 37 145 39 163 22 10 -9 23 -25 29
-35 8 -16 7 -18 -11 -12 -34 11 -24 -6 42 -70 34 -34 85 -89 112 -123 28 -34
56 -64 64 -67 21 -8 683 159 730 185 22 11 21 0 27 225 1 39 4 234 8 435 4
201 9 448 11 550 4 172 7 353 20 1455 3 226 7 552 10 725 3 173 7 587 10 920
3 333 7 754 10 935 3 182 7 535 10 785 12 1146 16 1284 33 1301 17 16 341 173
435 210 26 10 156 69 290 130 133 61 258 117 277 124 42 16 168 73 270 125 41
20 86 41 100 45 14 4 67 28 118 51 50 24 94 44 96 44 3 0 51 22 108 49 57 27
130 60 163 74 33 14 130 57 215 97 85 40 178 83 207 95 28 13 54 29 59 36 12
19 -36 3 -154 -52 -110 -52 -116 -54 -192 -88 -25 -10 -119 -54 -210 -96 -91
-42 -217 -100 -280 -127 -63 -27 -146 -65 -185 -82 -257 -120 -315 -147 -360
-167 -66 -29 -310 -139 -560 -251 -366 -165 -418 -187 -426 -182 -5 3 -9 50
-9 104 l0 100 40 25 c22 14 42 25 45 25 3 0 137 61 298 136 161 75 355 164
432 199 77 35 183 83 235 108 134 63 210 97 215 97 11 0 213 100 230 115 11 9
16 14 10 12 -5 -3 -30 -14 -55 -25 -91 -40 -487 -221 -565 -257 -44 -21 -145
-67 -225 -102 -80 -36 -203 -92 -275 -125 -71 -33 -152 -70 -180 -83 -81 -37
-196 -85 -206 -85 -14 0 -11 27 6 43 12 13 12 15 -5 20 -13 3 -20 18 -25 50
-10 65 -4 79 40 104 47 26 43 29 -9 8 -42 -18 -56 -13 -56 18 0 14 13 30 35
45 l35 22 -2 146 c-2 184 -4 186 -116 142 -42 -16 -85 -34 -94 -39 -10 -5 -27
-9 -38 -9 -20 0 -20 6 -20 309 0 355 -3 396 -35 417 -26 17 -42 9 -170 -79
-38 -26 -86 -58 -105 -70 -44 -27 -545 -363 -785 -526 -214 -145 -197 -134
-312 -206 l-92 -57 4 -62 c2 -33 1 -87 -3 -119 l-7 -58 -240 -110 c-432 -199
-537 -247 -675 -309 -58 -26 -217 -99 -355 -162 -137 -63 -351 -161 -475 -218
-345 -158 -722 -335 -1121 -529 -59 -28 -114 -51 -122 -51 -12 0 -17 12 -19
46 -3 53 17 39 -293 188 -99 48 -209 103 -245 122 -36 19 -123 63 -195 98 -71
35 -245 121 -385 191 -140 71 -270 136 -288 145 -26 13 -30 19 -20 27 16 13
431 216 973 477 88 42 190 93 228 112 37 19 84 41 105 49 20 7 138 62 262 123
124 60 268 130 320 155 255 121 1036 506 1160 571 108 56 510 252 595 290 44
19 177 84 296 144 119 61 227 113 240 117 13 4 149 69 304 145 406 199 557
272 675 328 129 60 347 166 670 324 135 66 283 137 330 158 47 21 191 91 320
156 129 66 287 143 350 173 63 29 234 112 380 183 146 72 299 145 340 163 41
19 192 92 335 163 143 71 296 146 340 167 301 139 350 168 318 188 -9 6 -190
-77 -212 -97 -9 -8 -27 -17 -40 -21 -25 -8 -206 -94 -561 -267 -124 -61 -304
-149 -400 -195 -96 -47 -245 -119 -330 -160 -85 -42 -198 -96 -250 -120 -52
-25 -178 -86 -280 -136 -102 -49 -243 -118 -315 -152 -71 -34 -263 -127 -425
-207 -162 -80 -322 -158 -355 -173 -33 -15 -172 -83 -310 -150 -137 -67 -299
-145 -360 -174 -125 -61 -428 -208 -650 -317 -82 -40 -190 -95 -240 -121 -49
-27 -119 -61 -155 -77 -36 -16 -184 -87 -330 -159 -146 -71 -323 -158 -395
-192 -298 -143 -442 -213 -660 -320 -126 -62 -286 -140 -355 -173 -69 -33
-232 -112 -363 -176 -131 -64 -240 -116 -242 -116 -2 0 -93 -43 -202 -96 -109
-53 -243 -118 -298 -144 -273 -130 -523 -250 -778 -376 -102 -50 -137 -58
-137 -30 0 14 386 209 1040 524 69 33 205 99 302 146 98 47 180 86 182 86 5 0
250 119 653 317 150 73 278 133 284 133 6 0 37 15 68 34 31 19 126 68 211 109
85 41 304 148 485 237 182 89 376 184 433 211 98 47 169 82 367 182 50 25 144
71 210 102 66 32 221 107 345 167 211 104 352 172 700 340 80 39 262 128 405
198 143 70 296 145 340 165 134 63 317 152 610 295 370 182 682 334 775 377
41 20 217 105 390 191 317 156 502 245 728 353 97 46 122 62 122 79 0 11 -2
20 -5 20 -3 0 -54 -25 -114 -55 -60 -30 -113 -55 -118 -55 -5 0 -24 -10 -43
-23 -19 -13 -62 -34 -95 -47 -33 -13 -72 -32 -87 -42 -14 -10 -29 -18 -32 -18
-12 0 -241 -115 -244 -122 -2 -5 -14 -8 -27 -8 -12 0 -28 -7 -35 -15 -7 -8
-16 -13 -20 -10 -4 3 -14 -2 -21 -11 -10 -13 -150 -84 -164 -84 -10 0 -121
-53 -135 -65 -8 -7 -27 -15 -42 -19 -15 -3 -33 -13 -41 -21 -8 -8 -39 -24 -69
-35 -29 -11 -66 -27 -83 -35 -16 -7 -77 -36 -135 -63 -58 -27 -116 -53 -130
-57 -14 -4 -41 -18 -60 -30 -19 -12 -143 -75 -275 -139 -132 -65 -253 -125
-270 -134 -16 -8 -37 -19 -45 -23 -45 -24 -411 -199 -414 -199 -2 0 -30 -15
-63 -33 -32 -18 -85 -44 -118 -57 -33 -13 -67 -28 -75 -35 -8 -6 -26 -16 -40
-22 -48 -21 -216 -102 -445 -213 -275 -134 -430 -209 -545 -261 -47 -22 -96
-46 -110 -54 -59 -36 -509 -255 -523 -255 -8 0 -20 -7 -27 -15 -7 -8 -17 -15
-22 -15 -5 0 -21 -9 -37 -21 -15 -11 -34 -21 -42 -22 -8 -2 -125 -58 -260
-125 -135 -67 -251 -122 -257 -122 -7 0 -12 -4 -12 -10 0 -5 -5 -10 -11 -10
-10 0 -34 -12 -179 -87 -25 -12 -49 -23 -54 -23 -9 0 -283 -130 -316 -150 -33
-20 -110 -60 -115 -60 -10 0 -80 -35 -83 -42 -2 -4 -9 -5 -15 -2 -7 2 -22 -3
-33 -13 -40 -35 -52 -41 -179 -94 -44 -19 -102 -48 -130 -64 -27 -17 -70 -37
-95 -45 -25 -8 -65 -27 -89 -42 -25 -15 -52 -28 -61 -28 -9 0 -31 -11 -50 -25
-19 -14 -40 -25 -48 -25 -9 0 -12 -6 -8 -16 5 -12 2 -15 -10 -10 -9 4 -35 -4
-58 -17 -36 -22 -109 -50 -128 -52 -4 0 -13 -6 -19 -12 -7 -7 -17 -13 -21 -13
-5 0 -18 -9 -30 -20 -12 -11 -32 -20 -44 -20 -28 0 -74 -20 -74 -32 0 -4 -8
-8 -17 -8 -9 0 -94 -38 -187 -84 -262 -128 -321 -156 -334 -156 -7 0 -12 -4
-12 -10 0 -5 -7 -10 -15 -10 -9 0 -33 -11 -55 -25 -22 -14 -42 -25 -44 -25 -3
0 -70 -31 -148 -69 -79 -37 -177 -84 -218 -104 -41 -19 -136 -64 -210 -99 -74
-36 -150 -71 -168 -79 -17 -7 -32 -17 -32 -21 0 -5 -5 -8 -12 -8 -6 0 -48 -18
-92 -39 -61 -30 -98 -41 -149 -45 -62 -5 -66 -4 -58 13 5 9 51 46 101 81 50
35 96 73 103 85 6 13 31 51 54 86 24 35 43 71 43 81 0 10 5 18 11 18 6 0 9 7
6 15 -4 8 0 27 8 42 8 15 15 35 15 43 0 37 82 86 441 263 206 101 527 260 714
352 187 92 680 336 1095 543 415 206 1007 499 1315 652 308 153 808 400 1110
550 303 150 775 384 1050 520 1994 987 2616 1298 2640 1320 11 10 55 39 98 65
l77 47 0 210 c-1 162 2 214 12 224 7 7 121 67 253 134 132 67 339 173 460 235
121 62 450 228 730 370 281 142 652 330 825 418 734 373 1084 547 1094 544 6
-2 13 -17 17 -34 3 -17 18 -46 32 -65 15 -19 27 -40 27 -46 0 -7 5 -12 10 -12
6 0 10 -6 10 -14 0 -8 8 -21 19 -28 10 -7 21 -24 26 -37 7 -22 38 -74 69 -115
13 -17 17 -17 43 -3 168 88 324 168 508 259 343 171 432 216 454 230 l21 13 0
852 0 853 -2090 0 -2091 0 -137 -74 c-75 -40 -191 -104 -257 -141 -66 -37
-178 -98 -250 -135 -71 -37 -157 -82 -190 -100 -138 -73 -172 -89 -207 -94
-20 -4 -39 -12 -41 -19 -2 -7 -8 -8 -13 -3 -14 13 45 54 255 172 108 61 225
128 261 149 142 82 227 130 270 152 19 9 62 34 95 55 l60 38 -940 0 -940 0
-45 -26z m950 -557 c0 -8 -8 -21 -17 -29 -17 -14 -384 -205 -427 -221 -32 -13
-2 16 41 38 21 11 69 40 108 66 38 25 94 58 124 73 29 15 74 40 100 57 51 31
71 36 71 16z m-1680 -926 c0 -12 -20 -25 -27 -18 -7 7 6 27 18 27 5 0 9 -4 9
-9z m-523 -5843 c-3 -7 -5 -2 -5 12 0 14 2 19 5 13 2 -7 2 -19 0 -25z m-6007
-3763 c0 -30 -45 -54 -64 -35 -8 8 -3 18 19 36 38 30 45 30 45 -1z m-6 -114
c3 -44 -11 -62 -22 -31 -6 16 -6 33 1 48 13 27 18 23 21 -17z m-9 -211 c3 -5
1 -10 -4 -10 -6 0 -11 5 -11 10 0 6 2 10 4 10 3 0 8 -4 11 -10z m6165 -1596
c0 -8 -5 -12 -10 -9 -6 4 -8 11 -5 16 9 14 15 11 15 -7z m-220 -259 c0 -8 -4
-15 -10 -15 -5 0 -10 7 -10 15 0 8 5 15 10 15 6 0 10 -7 10 -15z m10 -106 c0
-11 -4 -17 -10 -14 -5 3 -10 13 -10 21 0 8 5 14 10 14 6 0 10 -9 10 -21z
m-3333 -101 c-3 -8 -6 -5 -6 6 -1 11 2 17 5 13 3 -3 4 -12 1 -19z m-2277 -934
c0 -8 -4 -12 -10 -9 -5 3 -10 10 -10 16 0 5 5 9 10 9 6 0 10 -7 10 -16z m2270
-121 c0 -21 -3 -24 -9 -14 -5 8 -7 20 -4 28 8 21 13 15 13 -14z m3510 -700 c0
-15 -6 -23 -16 -23 -12 0 -15 6 -10 23 3 12 6 29 6 37 1 25 20 -11 20 -37z
m-3523 -45 c-3 -8 -6 -5 -6 6 -1 11 2 17 5 13 3 -3 4 -12 1 -19z m2145 -228
c2 -94 0 -170 -4 -170 -5 0 -8 56 -8 124 0 68 -3 144 -6 170 -5 30 -3 46 4 46
8 0 12 -56 14 -170z m5 -212 c-3 -7 -5 -2 -5 12 0 14 2 19 5 13 2 -7 2 -19 0
-25z m-2240 -150 c-3 -8 -6 -5 -6 6 -1 11 2 17 5 13 3 -3 4 -12 1 -19z m2370
-614 c-3 -3 -12 -4 -19 -1 -8 3 -5 6 6 6 11 1 17 -2 13 -5z m-37 -14 c0 -5 -4
-10 -10 -10 -5 0 -10 5 -10 10 0 6 5 10 10 10 6 0 10 -4 10 -10z m-160 -54 c0
-3 -4 -8 -10 -11 -5 -3 -10 -1 -10 4 0 6 5 11 10 11 6 0 10 -2 10 -4z m-35
-16 c-3 -5 -14 -10 -23 -10 -15 0 -15 2 -2 10 20 13 33 13 25 0z m-70 -30 c3
-5 1 -10 -4 -10 -6 0 -11 5 -11 10 0 6 2 10 4 10 3 0 8 -4 11 -10z m-4437 -29
c3 -8 -1 -12 -9 -9 -7 2 -15 10 -17 17 -3 8 1 12 9 9 7 -2 15 -10 17 -17z
m1505 -17 c-1 -10 -5 -90 -9 -177 -4 -88 -11 -160 -17 -164 -7 -4 -8 31 -4
108 4 63 7 147 7 187 0 55 3 73 13 69 6 -2 11 -13 10 -23z m2817 6 c0 -5 -17
-16 -37 -25 -21 -9 -53 -23 -71 -31 -37 -16 -86 -19 -77 -5 3 5 19 9 36 9 17
-1 35 5 39 13 5 7 31 21 57 30 26 9 49 17 51 18 1 0 2 -3 2 -9z m-210 -80 c0
-5 -9 -10 -19 -10 -11 0 -23 -4 -26 -10 -3 -5 -16 -10 -28 -10 -16 0 -12 5 18
19 47 23 55 24 55 11z m-100 -39 c0 -11 -31 -24 -39 -16 -3 3 1 10 9 15 19 12
30 12 30 1z m-60 -19 c0 -4 -15 -14 -34 -20 -19 -7 -37 -19 -40 -27 -3 -8 -12
-12 -19 -9 -8 3 -32 -2 -52 -11 -21 -8 -40 -14 -42 -12 -8 9 35 34 101 58 82
31 86 32 86 21z m-200 -70 c0 -10 -71 -42 -93 -42 -10 0 -17 -8 -17 -20 0 -11
-4 -20 -10 -20 -5 0 -10 4 -10 9 0 5 -9 7 -20 4 -11 -3 -20 -8 -20 -12 0 -4
-9 -7 -20 -7 -20 0 -20 1 2 18 13 10 37 22 53 27 17 5 53 18 80 29 28 11 51
21 53 21 1 1 2 -3 2 -7z m-240 -98 c0 -11 -6 -15 -20 -11 -10 3 -24 -1 -31 -9
-6 -8 -16 -11 -22 -7 -7 4 6 14 28 25 49 21 45 21 45 2z m-94 -31 c-3 -4 -17
-8 -29 -10 -17 -2 -19 -1 -7 7 17 11 47 14 36 3z m-81 -33 c-3 -5 -11 -10 -16
-10 -6 0 -7 5 -4 10 3 6 11 10 16 10 6 0 7 -4 4 -10z m-49 -18 c-3 -5 -16 -12
-28 -15 l-23 -6 24 20 c23 19 39 20 27 1z m-106 -42 c0 -5 -9 -10 -21 -10 -11
0 -17 5 -14 10 3 6 13 10 21 10 8 0 14 -4 14 -10z m-60 -15 c0 -7 -102 -51
-135 -58 -31 -6 56 38 105 53 14 5 26 9 28 9 1 1 2 -1 2 -4z m-210 -85 c0 -5
-9 -10 -19 -10 -11 0 -26 -7 -35 -15 -8 -8 -19 -15 -25 -15 -6 0 -8 7 -5 15 4
8 14 15 24 15 11 0 22 5 25 10 3 6 13 10 21 10 8 0 14 -4 14 -10z m-1855 -20
c-3 -5 -13 -10 -21 -10 -7 0 -19 -9 -26 -20 -7 -11 -19 -20 -26 -20 -9 0 -7 9
8 30 14 20 30 30 46 30 14 0 22 -4 19 -10z m1755 -14 c0 -3 -4 -8 -10 -11 -5
-3 -10 -1 -10 4 0 6 5 11 10 11 6 0 10 -2 10 -4z m-40 -15 c0 -9 -52 -22 -59
-15 -4 3 37 22 52 23 4 1 7 -3 7 -8z m-1559 -36 c0 -5 -7 -12 -16 -13 -9 -2
-33 -15 -52 -28 -20 -13 -42 -24 -51 -24 -8 0 -36 -19 -64 -41 -27 -23 -52
-39 -55 -35 -9 8 27 56 53 70 10 6 21 14 24 18 3 4 30 20 60 37 53 29 100 36
101 16z m1489 11 c0 -2 3 -13 7 -23 6 -15 4 -16 -8 -6 -8 7 -26 10 -40 7 -23
-5 -23 -5 -5 10 18 15 46 22 46 12z m-102 -40 c-10 -7 -18 -19 -18 -25 0 -7
-7 -10 -17 -7 -10 3 -31 -1 -47 -9 -17 -9 -34 -12 -43 -6 -11 6 4 15 53 34 77
29 97 33 72 13z m-143 -52 c10 -4 -14 -17 -70 -35 -47 -16 -91 -32 -98 -36 -7
-4 -16 -8 -22 -8 -5 0 -27 -8 -49 -18 -21 -9 -44 -17 -50 -17 -6 0 -6 -4 2 -9
10 -6 3 -10 -22 -15 -20 -4 -41 -4 -46 -1 -12 8 -52 -13 -45 -24 2 -5 -7 -8
-20 -8 -14 0 -28 3 -31 8 -3 5 6 9 19 9 14 0 30 6 36 14 6 7 33 19 59 26 26 7
52 16 57 20 6 4 37 17 70 28 33 12 87 32 120 46 70 28 68 28 90 20z m-190
-104 c-27 -12 -43 -12 -25 0 8 5 22 9 30 9 10 0 8 -3 -5 -9z m-275 -70 c0 -5
-4 -10 -10 -10 -5 0 -10 5 -10 10 0 6 5 10 10 10 6 0 10 -4 10 -10z m-36 -25
c4 -11 -2 -15 -24 -15 -46 0 -38 20 11 29 4 0 9 -6 13 -14z m-84 -24 c0 -5 -7
-11 -14 -14 -10 -4 -13 -1 -9 9 6 15 23 19 23 5z m-70 -21 c-8 -5 -19 -10 -25
-10 -5 0 -3 5 5 10 8 5 20 10 25 10 6 0 3 -5 -5 -10z m-60 -25 c-7 -8 -18 -15
-24 -15 -6 0 -2 7 8 15 25 19 32 19 16 0z"/>
<path d="M17983 22015 c-3 -9 -3 -19 1 -22 3 -4 6 -1 6 6 0 7 4 10 9 7 5 -3
11 1 15 9 3 9 0 15 -10 15 -8 0 -17 -7 -21 -15z"/>
<path d="M19086 21695 c-58 -30 -111 -55 -116 -55 -5 0 -31 -13 -57 -28 -27
-16 -54 -27 -61 -24 -6 2 -12 0 -12 -6 0 -10 -101 -62 -122 -62 -7 -1 -31 -11
-53 -24 -22 -13 -118 -63 -212 -111 -189 -95 -208 -98 -219 -39 -3 19 -15 39
-25 45 -11 5 -19 14 -19 20 0 6 -21 32 -46 58 -26 25 -58 64 -72 85 l-25 40
-21 -25 c-11 -14 -69 -49 -128 -78 -59 -29 -110 -56 -113 -62 -4 -5 -15 -9
-26 -9 -10 0 -19 -4 -19 -10 0 -5 -7 -10 -15 -10 -8 0 -15 -4 -15 -9 0 -5 -12
-14 -27 -20 -16 -5 -39 -17 -53 -25 -14 -8 -54 -26 -90 -42 -36 -15 -67 -30
-70 -34 -5 -7 -177 -90 -186 -90 -11 0 -199 -95 -202 -102 -2 -5 -8 -8 -13 -8
-6 0 -47 -17 -92 -39 -45 -21 -117 -55 -159 -75 -43 -20 -78 -40 -78 -44 0
-10 -67 -45 -93 -49 -12 -2 -23 -8 -25 -13 -2 -6 -11 -10 -20 -10 -17 0 -323
-150 -372 -182 -14 -9 -38 -20 -55 -24 -35 -9 -149 -65 -153 -76 -2 -4 -10 -8
-17 -8 -7 0 -38 -13 -68 -29 -30 -16 -69 -32 -86 -36 -17 -4 -31 -10 -31 -14
0 -4 -36 -24 -79 -44 -44 -21 -81 -41 -83 -45 -2 -4 -23 -17 -48 -29 -77 -37
-233 -109 -270 -123 -19 -8 -50 -25 -69 -37 -19 -13 -39 -23 -46 -23 -6 0 -47
-19 -91 -42 -43 -22 -97 -50 -119 -61 -22 -11 -41 -23 -43 -28 -2 -5 -11 -9
-19 -9 -8 0 -45 -16 -82 -34 -114 -60 -299 -146 -311 -146 -15 0 -90 -42 -90
-50 0 -3 10 -17 22 -30 l22 -23 10 22 c9 22 322 182 866 443 80 39 179 87 220
108 196 99 1155 574 1345 665 188 90 960 471 1008 496 l37 20 10 -26 c15 -38
15 -38 -42 -64 -146 -65 -195 -88 -252 -117 -33 -18 -124 -63 -200 -101 -77
-37 -149 -73 -160 -80 -12 -6 -37 -19 -56 -29 -19 -9 -251 -123 -515 -254
-264 -131 -579 -286 -700 -345 -523 -254 -1257 -614 -1320 -647 -22 -11 -80
-41 -130 -65 -49 -25 -92 -47 -94 -49 -6 -5 30 -44 40 -44 4 0 10 8 14 18 7
23 97 86 150 106 22 7 78 33 125 56 256 128 885 437 950 467 41 19 215 104
385 188 171 84 326 160 345 169 19 8 46 22 60 30 36 22 859 425 1095 537 33
15 107 51 164 78 79 38 108 48 118 39 7 -6 13 -16 13 -22 1 -34 178 -256 204
-256 6 0 21 11 35 24 26 24 329 188 373 202 13 3 129 58 258 121 129 63 256
124 283 135 37 16 47 25 47 44 0 13 -2 24 -5 24 -5 0 -570 -285 -610 -308 -41
-23 -311 -150 -332 -157 -49 -14 -14 62 40 91 76 39 243 122 372 184 457 220
535 261 535 280 0 11 -2 20 -3 20 -2 0 -52 -25 -111 -55z"/>
<path d="M15717 20543 c-4 -3 -7 -11 -7 -17 0 -6 5 -5 12 2 6 6 9 14 7 17 -3
3 -9 2 -12 -2z"/>
<path d="M18070 18899 c0 -17 31 -79 40 -79 5 0 11 -14 15 -31 4 -17 13 -33
21 -36 8 -3 14 -9 14 -14 0 -11 49 -59 60 -59 6 0 10 -4 10 -8 0 -13 56 -72
68 -72 13 0 32 32 32 55 0 16 -236 255 -252 255 -4 0 -8 -5 -8 -11z"/>
<path d="M19175 18810 c-3 -5 -2 -10 4 -10 5 0 13 5 16 10 3 6 2 10 -4 10 -5
0 -13 -4 -16 -10z"/>
<path d="M19102 18778 c-24 -11 -42 -22 -39 -24 3 -3 27 6 54 20 57 30 47 33
-15 4z"/>
<path d="M18063 18713 c3 -16 9 -36 12 -45 5 -13 2 -15 -13 -11 -13 3 -45 -9
-84 -31 -71 -40 -72 -46 -3 -16 58 25 72 25 80 1 8 -27 199 -230 217 -231 13
0 79 42 74 48 -3 3 -11 0 -18 -5 -20 -16 -48 0 -100 55 -72 75 -63 104 10 32
26 -26 46 -38 56 -34 23 9 20 15 -23 49 -21 17 -37 32 -35 35 4 7 -160 180
-170 180 -5 0 -6 -12 -3 -27z m57 -106 c0 -5 -4 -5 -10 -2 -5 3 -10 14 -10 23
0 15 2 15 10 2 5 -8 10 -19 10 -23z m25 -17 c3 -5 1 -10 -4 -10 -6 0 -11 5
-11 10 0 6 2 10 4 10 3 0 8 -4 11 -10z"/>
<path d="M18960 18710 c-8 -5 -10 -10 -5 -10 6 0 17 5 25 10 8 5 11 10 5 10
-5 0 -17 -5 -25 -10z"/>
<path d="M18884 18680 c-12 -5 -25 -14 -29 -20 -4 -7 7 -4 24 4 17 9 31 19 31
21 0 6 1 6 -26 -5z"/>
<path d="M17870 18570 c-9 -6 -10 -10 -3 -10 6 0 15 5 18 10 8 12 4 12 -15 0z"/>
<path d="M18590 18540 c-8 -5 -10 -10 -5 -10 6 0 17 5 25 10 8 5 11 10 5 10
-5 0 -17 -5 -25 -10z"/>
<path d="M19150 18529 c-8 -5 -51 -26 -95 -46 -44 -20 -75 -38 -69 -40 14 -5
214 79 214 89 0 11 -32 9 -50 -3z"/>
<path d="M17720 18505 c-25 -13 -40 -24 -35 -24 6 0 30 11 55 24 25 13 41 24
35 24 -5 0 -30 -11 -55 -24z"/>
<path d="M18534 18515 c-18 -14 -18 -14 4 -8 12 3 22 9 22 14 0 12 -3 11 -26
-6z"/>
<path d="M17634 18465 c-18 -13 -18 -14 4 -8 12 3 25 9 28 14 8 14 -10 11 -32
-6z"/>
<path d="M17585 18440 c-3 -6 1 -7 9 -4 18 7 21 14 7 14 -6 0 -13 -4 -16 -10z"/>
<path d="M18950 18432 c-8 -2 -101 -44 -207 -93 -105 -49 -194 -89 -196 -89
-3 0 -47 -20 -99 -44 -51 -23 -110 -49 -131 -57 l-39 -14 -121 126 -122 125
-100 -53 c-55 -29 -106 -53 -112 -53 -7 0 -59 -23 -115 -51 -57 -28 -134 -64
-173 -81 -38 -17 -107 -48 -153 -69 -45 -22 -84 -39 -86 -39 -3 0 -39 -16 -80
-35 -42 -19 -81 -35 -86 -35 -6 0 -10 -4 -10 -9 0 -15 68 8 178 60 57 27 106
49 108 49 2 0 59 27 127 59 67 33 145 68 172 79 28 11 82 34 120 52 128 58
194 84 199 79 1 -2 18 -26 36 -54 39 -57 163 -182 191 -190 12 -4 32 4 56 23
21 16 65 39 97 51 33 12 82 33 110 46 28 13 71 32 96 43 119 53 162 73 255
117 55 26 102 49 104 51 8 7 -4 11 -19 6z"/>
<path d="M17540 18420 c-8 -5 -10 -10 -5 -10 6 0 17 5 25 10 8 5 11 10 5 10
-5 0 -17 -5 -25 -10z"/>
<path d="M17418 18367 c-16 -6 -28 -15 -28 -19 0 -7 55 16 69 28 7 7 -13 2
-41 -9z"/>
<path d="M16985 18170 c-3 -6 1 -7 9 -4 18 7 21 14 7 14 -6 0 -13 -4 -16 -10z"/>
<path d="M16640 18015 c-14 -8 -20 -14 -14 -15 5 0 19 7 30 15 24 18 16 19
-16 0z"/>
<path d="M16555 17975 c-25 -12 -26 -14 -5 -9 14 4 29 10 35 15 12 12 5 11
-30 -6z"/>
<path d="M16490 17950 c-8 -5 -10 -10 -5 -10 6 0 17 5 25 10 8 5 11 10 5 10
-5 0 -17 -5 -25 -10z"/>
<path d="M17070 17940 c-16 -9 -75 -35 -160 -70 -30 -13 -59 -27 -64 -32 -20
-16 20 -7 72 17 30 14 58 25 63 25 15 0 118 50 124 60 7 12 -14 12 -35 0z"/>
<path d="M16450 17930 c-9 -6 -10 -10 -3 -10 6 0 15 5 18 10 8 12 4 12 -15 0z"/>
<path d="M16380 17900 c-19 -11 -32 -19 -29 -20 11 0 79 30 79 35 0 9 -14 5
-50 -15z"/>
<path d="M16250 17840 c-8 -5 -10 -10 -5 -10 6 0 17 5 25 10 8 5 11 10 5 10
-5 0 -17 -5 -25 -10z"/>
<path d="M16790 17816 c-29 -15 -116 -55 -145 -66 -11 -5 -49 -21 -85 -38 -36
-16 -99 -44 -140 -62 -41 -18 -102 -45 -135 -60 -33 -15 -87 -37 -120 -50 -33
-13 -67 -30 -76 -37 -8 -7 -20 -13 -26 -13 -10 0 -57 -20 -178 -74 -27 -13
-95 -42 -150 -66 -55 -24 -109 -49 -120 -57 -11 -7 -26 -13 -33 -13 -8 0 -27
-9 -43 -21 -16 -11 -29 -17 -29 -13 0 3 -6 2 -12 -3 -7 -6 -30 -16 -50 -22
-21 -7 -38 -17 -38 -23 0 -6 -3 -9 -6 -5 -6 6 -136 -47 -209 -85 -22 -11 -56
-26 -75 -33 -19 -7 -55 -22 -80 -33 -25 -11 -90 -39 -145 -62 -55 -23 -118
-50 -140 -60 -22 -11 -76 -35 -120 -53 -78 -32 -80 -34 -86 -72 -5 -29 -3 -42
8 -50 22 -17 7 -38 -45 -62 -26 -12 -108 -49 -182 -83 -74 -34 -160 -73 -190
-87 -30 -14 -88 -40 -128 -59 -40 -19 -109 -50 -155 -71 -94 -42 -92 -41 -85
-49 6 -5 54 16 103 44 11 6 54 25 95 43 41 17 112 49 157 70 46 22 85 39 88
39 3 0 29 12 58 26 28 14 113 53 187 86 74 33 137 61 139 63 1 2 4 29 6 60 1
31 7 61 13 67 11 11 99 51 297 134 72 30 162 70 200 89 39 19 99 45 135 58 36
14 108 44 160 69 136 64 229 105 275 122 22 8 92 37 155 66 63 29 189 85 280
125 91 40 205 91 253 114 49 22 90 41 93 41 3 0 64 25 136 56 113 49 228 109
228 120 0 7 -15 3 -40 -10z"/>
<path d="M16095 17770 c-3 -6 1 -7 9 -4 18 7 21 14 7 14 -6 0 -13 -4 -16 -10z"/>
<path d="M15911 17694 c-18 -8 -31 -17 -28 -20 5 -6 67 23 67 31 0 6 3 7 -39
-11z"/>
<path d="M15812 17648 c-24 -11 -42 -21 -39 -24 4 -5 97 34 97 41 0 8 -13 4
-58 -17z"/>
<path d="M15712 17603 c-18 -8 -31 -18 -28 -20 2 -2 21 5 43 16 45 24 33 28
-15 4z"/>
<path d="M15630 17565 c-14 -8 -20 -14 -15 -14 6 0 21 6 35 14 14 8 21 14 15
14 -5 0 -21 -6 -35 -14z"/>
<path d="M15560 17535 c-14 -8 -20 -14 -15 -14 6 0 21 6 35 14 14 8 21 14 15
14 -5 0 -21 -6 -35 -14z"/>
<path d="M15440 17480 c-8 -5 -10 -10 -5 -10 6 0 17 5 25 10 8 5 11 10 5 10
-5 0 -17 -5 -25 -10z"/>
<path d="M15390 17460 c-8 -5 -10 -10 -5 -10 6 0 17 5 25 10 8 5 11 10 5 10
-5 0 -17 -5 -25 -10z"/>
<path d="M15331 17434 c-18 -8 -31 -17 -28 -20 5 -6 67 23 67 31 0 6 3 7 -39
-11z"/>
<path d="M15210 17380 c-72 -38 -53 -38 25 0 33 16 53 29 45 29 -8 0 -40 -13
-70 -29z"/>
<path d="M15088 17324 c-16 -8 -28 -17 -28 -19 0 -6 52 16 65 27 15 13 -7 9
-37 -8z"/>
<path d="M15010 17290 c-13 -8 -13 -10 2 -10 9 0 20 5 23 10 8 13 -5 13 -25 0z"/>
<path d="M14883 17234 c-18 -8 -33 -16 -33 -19 0 -5 70 22 79 30 8 9 -14 4
-46 -11z"/>
<path d="M14785 17189 c-39 -24 -21 -24 25 1 19 11 28 19 20 19 -8 0 -28 -9
-45 -20z"/>
<path d="M14704 17155 c-17 -13 -16 -14 14 -4 33 11 41 19 19 19 -7 0 -22 -7
-33 -15z"/>
<path d="M14623 17119 c-24 -11 -43 -22 -43 -24 0 -5 32 6 45 16 6 4 15 8 20
9 6 1 17 6 25 11 28 16 -5 8 -47 -12z"/>
<path d="M14530 17080 c-8 -5 -11 -12 -8 -15 4 -4 17 0 30 9 24 17 5 23 -22 6z"/>
<path d="M18180 15285 c0 -2 10 -10 23 -16 20 -11 21 -11 8 4 -13 16 -31 23
-31 12z"/>
<path d="M18195 13820 c10 -11 20 -20 23 -20 3 0 -3 9 -13 20 -10 11 -20 20
-23 20 -3 0 3 -9 13 -20z"/>
<path d="M18250 13776 c0 -2 8 -10 18 -17 15 -13 16 -12 3 4 -13 16 -21 21
-21 13z"/>
<path d="M18178 12400 c18 -18 35 -30 38 -27 2 2 -12 17 -33 32 l-38 27 33
-32z"/>
<path d="M18235 12350 c3 -5 8 -10 11 -10 2 0 4 5 4 10 0 6 -5 10 -11 10 -5 0
-7 -4 -4 -10z"/>
<path d="M14231 10764 c0 -11 3 -14 6 -6 3 7 2 16 -1 19 -3 4 -6 -2 -5 -13z"/>
<path d="M18150 8406 c0 -2 7 -7 16 -10 8 -3 12 -2 9 4 -6 10 -25 14 -25 6z"/>
<path d="M9270 8367 c-41 -16 -100 -37 -130 -48 -30 -11 -60 -27 -66 -35 -12
-15 -19 -341 -8 -375 5 -19 5 -20 177 44 59 22 107 43 108 46 4 33 3 373 -1
383 -4 11 -20 8 -80 -15z"/>
<path d="M18210 8365 c0 -2 10 -10 23 -16 20 -11 21 -11 8 4 -13 16 -31 23
-31 12z"/>
<path d="M18310 8292 c0 -12 19 -26 26 -19 2 2 -2 10 -11 17 -9 8 -15 8 -15 2z"/>
<path d="M8980 8256 c-19 -8 -62 -23 -95 -35 -33 -12 -74 -28 -90 -36 -41 -19
-86 -36 -106 -40 -9 -2 -36 -13 -60 -24 -23 -12 -51 -21 -60 -21 -10 0 -20 -4
-24 -9 -3 -5 -22 -15 -43 -21 -41 -13 -117 -42 -262 -100 -52 -21 -135 -54
-185 -73 -49 -20 -123 -48 -164 -64 l-74 -29 2 -79 c2 -48 7 -83 14 -87 9 -6
9 -8 -1 -8 -9 0 -10 -5 -2 -19 7 -14 7 -22 -1 -27 -7 -4 -8 -20 -5 -43 10 -56
11 -74 2 -98 -5 -16 -3 -23 5 -23 7 0 9 3 6 6 -4 4 5 17 19 29 24 21 25 23 9
33 -12 6 -16 16 -12 26 4 10 11 14 17 11 6 -4 8 14 5 51 -3 32 -10 61 -16 65
-8 5 -8 8 1 11 8 2 13 26 15 63 1 47 6 62 25 77 29 24 56 23 63 -2 3 -11 1
-53 -5 -92 -12 -93 -15 -218 -5 -225 4 -2 54 14 111 38 76 30 103 46 101 58
-1 9 0 10 2 4 3 -7 11 -13 19 -13 10 0 14 12 14 41 0 22 4 38 9 35 5 -4 7 -20
5 -36 -3 -17 -1 -30 4 -30 18 0 29 55 31 150 3 135 11 126 11 -13 0 -94 3
-117 14 -117 8 0 119 40 248 89 128 49 294 111 368 138 l135 50 3 201 c1 111
-1 202 -5 202 -5 -1 -24 -7 -43 -14z m-905 -498 c-2 -51 -4 -119 -4 -150 -1
-32 -5 -58 -10 -58 -4 0 -20 11 -35 25 -26 24 -27 26 -24 142 3 115 3 117 28
124 49 14 49 14 45 -83z m139 17 c3 -8 1 -15 -4 -15 -6 0 -10 7 -10 15 0 8 2
15 4 15 2 0 6 -7 10 -15z m-364 -65 c0 -5 -4 -10 -10 -10 -5 0 -10 5 -10 10 0
6 5 10 10 10 6 0 10 -4 10 -10z m0 -24 c0 -3 -4 -8 -10 -11 -5 -3 -10 -1 -10
4 0 6 5 11 10 11 6 0 10 -2 10 -4z"/>
<path d="M9205 7903 c-66 -25 -126 -50 -133 -55 -7 -6 -10 -22 -8 -37 2 -14 5
-52 5 -84 l1 -58 37 7 c21 4 85 26 143 48 l105 42 2 92 c2 81 0 92 -15 91 -9
0 -71 -21 -137 -46z"/>
<path d="M8775 7739 c-288 -108 -443 -167 -470 -179 -22 -10 -105 -41 -320
-120 -77 -29 -147 -55 -155 -60 -20 -11 -14 -93 11 -138 20 -39 24 -35 34 39
5 41 9 48 33 52 37 7 42 2 42 -44 0 -49 8 -49 120 -1 74 33 86 41 91 67 l7 30
1 -27 c1 -32 8 -34 37 -13 12 8 24 11 28 8 7 -8 8 -2 10 59 2 68 16 72 16 5 0
-32 4 -57 9 -57 4 0 138 49 297 109 159 59 318 118 354 130 110 38 110 37 110
141 0 50 -3 90 -7 90 -5 -1 -116 -41 -248 -91z m-563 -319 c3 -17 1 -33 -4
-36 -4 -3 -8 11 -8 30 0 44 6 47 12 6z"/>
<path d="M9240 7686 c-47 -18 -107 -40 -134 -50 l-48 -19 7 -61 c4 -37 12 -64
21 -69 11 -6 12 -12 4 -22 -8 -10 -4 -14 17 -18 19 -4 60 7 133 36 58 22 108
45 111 50 4 5 6 49 6 98 0 105 5 103 -117 55z"/>
<path d="M8880 7548 c-74 -27 -151 -55 -170 -63 -104 -40 -584 -220 -705 -264
-184 -68 -185 -68 -185 -87 0 -9 9 -27 20 -42 15 -18 17 -28 9 -33 -16 -9 -2
-29 16 -22 8 3 15 17 15 33 0 31 32 65 55 57 11 -5 15 -21 15 -62 0 -59 9 -67
46 -41 11 8 36 17 56 21 20 4 45 15 57 26 11 10 26 19 34 19 8 0 14 15 16 42
3 58 11 62 11 5 0 -46 12 -62 24 -31 3 9 6 39 7 67 0 38 3 47 9 32 5 -11 6
-35 3 -52 -4 -26 -2 -33 11 -33 13 0 16 11 16 60 0 33 4 60 10 60 6 0 10 -27
10 -61 0 -54 2 -61 18 -56 9 3 71 26 137 52 125 48 139 53 423 158 96 35 178
70 183 78 11 17 12 176 2 182 -5 2 -69 -18 -143 -45z"/>
<path d="M7733 7583 c-32 -6 -30 -49 4 -85 15 -15 31 -28 35 -28 12 0 5 113
-7 115 -5 1 -20 0 -32 -2z"/>
<path d="M11068 7183 c-10 -3 -18 -9 -18 -14 0 -6 -4 -8 -9 -5 -5 3 -11 -1
-15 -9 -3 -8 -10 -15 -16 -15 -6 0 -8 5 -5 10 9 15 -1 12 -53 -12 -26 -12 -51
-21 -55 -20 -4 1 -18 -4 -30 -13 -12 -8 -31 -15 -44 -15 -34 0 -76 -22 -61
-32 9 -5 7 -8 -7 -8 -12 0 -27 -6 -34 -12 -11 -11 -13 -10 -8 4 5 14 2 15 -24
6 -16 -5 -29 -16 -29 -24 0 -7 -6 -11 -14 -8 -18 7 -98 -15 -92 -25 3 -5 -10
-17 -29 -27 -41 -22 -43 -28 -13 -48 28 -20 49 -20 123 -1 58 15 389 130 450
156 70 30 87 75 38 99 -35 17 -34 17 -55 13z"/>
<path d="M18170 7090 c0 -11 99 -64 106 -57 6 5 -85 67 -98 67 -4 0 -8 -4 -8
-10z"/>
<path d="M18340 6996 c0 -2 7 -7 16 -10 8 -3 12 -2 9 4 -6 10 -25 14 -25 6z"/>
<path d="M10417 6783 c-11 -3 -16 -11 -13 -19 4 -10 -4 -16 -24 -20 -16 -4
-31 -13 -34 -21 -3 -8 -11 -11 -17 -7 -8 4 -7 9 2 15 10 6 8 9 -8 9 -13 0 -22
-5 -20 -10 1 -6 -20 -20 -46 -32 -38 -17 -50 -19 -57 -9 -5 10 -11 7 -23 -9
-10 -15 -16 -17 -19 -8 -4 10 -9 8 -23 -5 -10 -10 -26 -16 -36 -14 -10 3 -19
1 -21 -5 -2 -5 -15 -11 -28 -12 -44 -5 -75 -18 -89 -38 -11 -16 -21 -19 -50
-14 -28 5 -33 4 -21 -4 12 -10 10 -11 -9 -6 -17 3 -29 -2 -42 -18 -17 -22 -75
-44 -63 -25 3 5 -4 9 -15 9 -19 0 -25 -9 -22 -35 0 -6 -15 -15 -33 -21 -31 -9
-34 -9 -31 8 2 10 1 18 -3 18 -13 0 -34 -17 -32 -26 3 -9 -10 -17 -58 -32 -23
-7 -30 -7 -25 1 4 7 0 8 -11 4 -10 -4 -22 -7 -27 -7 -6 0 -7 -5 -4 -10 4 -6
11 -7 17 -4 6 4 8 2 5 -3 -9 -15 -66 -22 -71 -9 -3 6 -8 1 -11 -11 -4 -13 -12
-23 -17 -23 -5 0 -7 4 -4 9 4 5 -3 7 -14 4 -11 -3 -20 -11 -20 -18 0 -7 -12
-11 -32 -10 -23 2 -37 -4 -47 -17 -7 -11 -19 -17 -27 -14 -8 3 -11 0 -7 -10 3
-7 0 -14 -6 -14 -6 0 -11 5 -11 11 0 5 -5 7 -10 4 -6 -4 -8 -10 -6 -14 3 -4
-8 -6 -25 -5 -16 1 -29 -1 -29 -6 0 -11 -59 -34 -68 -26 -3 4 0 11 8 16 13 8
12 10 -2 10 -20 0 -32 -16 -18 -25 20 -12 9 -25 -22 -25 -17 0 -40 -8 -51 -17
-19 -17 -20 -17 -14 0 4 9 3 17 -2 17 -13 0 -32 -26 -24 -33 10 -11 -6 -8 -28
4 -17 8 -24 6 -40 -12 -16 -18 -22 -20 -28 -10 -7 10 -10 9 -16 -8 -5 -17 -10
-19 -26 -11 -15 8 -23 7 -34 -3 -8 -8 -11 -18 -7 -22 4 -5 -2 -5 -12 -1 -11 4
-29 0 -42 -9 -18 -11 -24 -12 -24 -3 0 7 -7 2 -16 -11 -12 -16 -19 -20 -27
-12 -6 6 -18 11 -26 11 -8 0 -12 -3 -8 -6 3 -4 -1 -13 -9 -22 -12 -12 -18 -12
-27 -2 -9 10 -9 11 1 6 6 -4 12 -2 12 4 0 6 -8 10 -17 8 -10 -2 -17 -10 -15
-16 1 -7 -2 -12 -8 -12 -5 0 -10 6 -10 13 0 6 -10 0 -23 -15 -17 -19 -27 -24
-38 -17 -19 12 -32 11 -24 -1 7 -12 -43 -33 -62 -26 -7 3 -13 -1 -13 -10 0
-11 -6 -13 -20 -9 -21 7 -65 -3 -56 -12 3 -3 -1 -12 -9 -19 -17 -17 -59 -19
-49 -3 4 7 1 10 -6 7 -21 -7 -23 -26 -3 -31 15 -4 15 -5 -3 -6 -11 0 -26 5
-33 12 -11 10 -13 8 -9 -8 4 -16 0 -20 -21 -20 -14 -1 -29 3 -32 8 -3 5 -14 0
-24 -9 -26 -26 -66 -46 -82 -40 -7 3 -13 1 -13 -4 0 -6 -17 -10 -39 -10 -59 0
-101 -18 -101 -43 0 -18 -2 -19 -10 -7 -7 12 -16 12 -47 3 -103 -30 -257 -91
-262 -104 -3 -8 -12 -15 -19 -17 -8 -1 -11 2 -7 8 8 13 3 13 -42 -4 -21 -8
-47 -17 -58 -21 -15 -4 -16 -8 -6 -14 10 -6 9 -10 -4 -14 -9 -4 -13 -3 -10 3
9 15 -27 12 -48 -4 -15 -12 -16 -14 -2 -20 10 -4 15 -19 15 -52 0 -40 2 -45
18 -39 54 21 293 109 327 121 22 7 90 31 150 53 61 22 160 57 220 79 61 22
153 55 205 75 192 71 457 166 530 190 41 14 125 43 185 65 819 299 969 355
1030 380 28 11 127 51 220 87 195 77 221 97 179 139 -16 17 -39 22 -30 8 3 -5
-9 -9 -26 -9 -28 0 -29 1 -12 14 18 13 14 15 -19 6z m-2567 -963 c0 -5 -5 -10
-11 -10 -5 0 -7 5 -4 10 3 6 8 10 11 10 2 0 4 -4 4 -10z m-90 -30 c0 -5 -5
-10 -11 -10 -5 0 -7 5 -4 10 3 6 8 10 11 10 2 0 4 -4 4 -10z m-97 -37 c-7 -2
-19 -2 -25 0 -7 3 -2 5 12 5 14 0 19 -2 13 -5z"/>
<path d="M9930 6600 c0 -5 5 -10 10 -10 6 0 10 5 10 10 0 6 -4 10 -10 10 -5 0
-10 -4 -10 -10z"/>
<path d="M7180 6370 c-8 -5 -12 -12 -9 -15 4 -3 12 1 19 10 14 17 11 19 -10 5z"/>
<path d="M9060 6279 c0 -5 5 -7 10 -4 6 3 10 8 10 11 0 2 -4 4 -10 4 -5 0 -10
-5 -10 -11z"/>
<path d="M6358 6089 c-24 -14 -23 -49 0 -49 15 0 42 36 42 55 0 8 -24 5 -42
-6z"/>
<path d="M7225 5774 c-60 -23 -180 -68 -265 -98 -118 -42 -150 -57 -132 -62
16 -5 22 -14 22 -34 0 -56 5 -59 68 -40 68 22 222 78 350 126 l92 36 0 59 c0
41 -4 59 -12 58 -7 -1 -62 -21 -123 -45z"/>
<path d="M18266 5755 c10 -8 24 -14 29 -14 6 0 1 6 -9 14 -11 8 -24 15 -30 15
-5 0 -1 -7 10 -15z"/>
<path d="M18331 5701 c13 -10 35 -23 49 -30 22 -11 20 -8 -8 18 -18 17 -40 31
-49 31 -12 0 -10 -5 8 -19z"/>
<path d="M11084 4618 c-5 -17 0 -27 22 -45 16 -13 41 -35 55 -49 30 -28 44
-31 35 -6 -3 9 3 5 14 -10 11 -14 33 -29 49 -33 16 -3 39 -17 51 -31 13 -13
29 -24 37 -24 7 0 13 -6 14 -12 0 -7 4 -4 9 7 8 19 9 19 9 -2 1 -24 30 -38 62
-28 30 10 20 40 -13 38 -19 -1 -29 5 -38 25 l-12 27 -9 -23 c-5 -13 -13 -21
-18 -17 -6 3 -8 12 -5 19 3 9 -3 17 -15 21 -12 3 -19 10 -16 15 3 5 1 11 -5
15 -5 3 -10 1 -10 -4 0 -6 -5 -11 -11 -11 -6 0 -9 6 -6 14 3 8 -1 17 -9 20 -8
3 -14 1 -14 -4 0 -6 -5 -10 -10 -10 -6 0 -10 8 -8 17 2 12 -6 19 -26 23 -17 3
-28 10 -27 15 2 6 -6 15 -18 21 -11 6 -29 18 -38 26 -33 28 -41 29 -49 6z"/>
<path d="M11087 4489 c44 -45 113 -85 113 -65 0 8 -10 18 -22 22 -12 3 -26 10
-32 15 -6 5 -29 21 -51 35 l-40 26 32 -33z"/>
<path d="M11210 4410 c0 -6 8 -14 18 -17 9 -4 19 -10 22 -14 3 -4 27 -19 54
-34 35 -19 51 -24 59 -16 8 8 5 11 -11 11 -13 0 -34 12 -47 26 -13 14 -29 23
-35 19 -7 -4 -14 2 -17 14 -5 21 -43 30 -43 11z"/>
<path d="M18374 4361 c21 -23 26 -26 26 -11 0 5 -10 15 -22 21 -23 12 -23 12
-4 -10z"/>
<path d="M11000 4206 c-24 -9 -30 -15 -20 -19 13 -5 12 -8 -4 -21 -12 -10 -24
-12 -30 -7 -19 15 -159 -10 -172 -31 -7 -11 37 -3 64 11 31 17 45 13 26 -6
-10 -10 -21 -18 -25 -18 -4 0 -11 -3 -15 -7 -11 -12 -48 -10 -61 3 -6 6 -17 9
-25 6 -9 -4 -5 -8 10 -12 32 -10 27 -25 -8 -25 -18 0 -33 -6 -36 -15 -4 -8
-15 -15 -25 -15 -20 0 -52 -15 -81 -38 -9 -8 -27 -12 -40 -11 -13 2 -39 -4
-58 -13 -51 -23 -72 -31 -100 -35 -14 -2 -36 -11 -48 -19 -13 -9 -26 -13 -29
-10 -4 3 -12 1 -20 -5 -7 -6 -13 -8 -13 -3 0 5 -4 3 -9 -5 -5 -8 -20 -16 -32
-18 -13 -2 -28 -8 -33 -13 -4 -4 -15 -6 -22 -3 -7 3 -21 -3 -30 -12 -9 -9 -23
-14 -30 -11 -8 3 -14 1 -14 -5 0 -6 -8 -9 -18 -7 -9 1 -43 -10 -75 -26 -35
-17 -68 -26 -83 -23 -13 2 -24 1 -24 -2 0 -4 -27 -13 -60 -19 -40 -9 -60 -18
-60 -27 0 -18 -12 -19 -28 -3 -9 9 -12 9 -12 0 0 -7 -8 -12 -17 -12 -10 0 -31
-7 -47 -15 -15 -8 -37 -15 -47 -15 -10 0 -21 -5 -24 -10 -4 -6 -11 -8 -16 -4
-5 3 -17 0 -26 -8 -9 -7 -18 -12 -20 -10 -7 5 -58 -11 -73 -23 -8 -7 -32 -15
-53 -18 -22 -3 -46 -12 -54 -19 -9 -7 -25 -12 -35 -10 -11 2 -36 -6 -58 -17
-21 -11 -41 -17 -44 -14 -6 7 -57 -16 -67 -30 -3 -4 -22 -8 -42 -9 -20 -1 -37
-5 -37 -10 0 -5 -5 -6 -10 -3 -16 10 -50 -5 -50 -21 0 -8 -10 -14 -24 -14 -14
0 -28 -5 -31 -10 -5 -8 -11 -7 -21 1 -12 10 -13 9 -8 -4 4 -12 1 -14 -15 -10
-12 3 -21 1 -21 -5 0 -15 -61 -31 -96 -25 -23 4 -26 2 -14 -6 13 -9 12 -11 -5
-12 -35 -3 -40 -4 -52 -12 -6 -4 -18 -5 -26 -1 -8 3 -17 -1 -20 -9 -5 -14 -59
-31 -84 -28 -7 1 -13 -3 -13 -9 0 -5 -9 -10 -19 -10 -11 0 -23 -4 -26 -10 -3
-5 -15 -10 -26 -10 -31 0 -99 -24 -99 -35 0 -5 -5 -3 -10 5 -7 12 -12 12 -22
2 -6 -6 -20 -12 -30 -12 -10 0 -18 -5 -18 -11 0 -5 -4 -8 -8 -5 -14 9 -232
-69 -232 -83 0 -3 -15 -7 -32 -7 -42 -2 -78 -14 -78 -25 0 -5 -15 -9 -34 -9
-19 0 -38 -4 -41 -10 -3 -5 -22 -10 -41 -10 -19 0 -34 -5 -34 -10 0 -6 -6 -10
-12 -9 -7 1 -26 -4 -43 -11 -16 -7 -32 -14 -35 -15 -3 -1 -13 -5 -22 -9 -9 -4
-22 -9 -30 -10 -7 -2 -20 -5 -28 -8 -8 -3 -30 -10 -49 -16 -19 -6 -38 -9 -42
-6 -5 3 -9 1 -9 -4 0 -6 -15 -13 -34 -16 -19 -4 -40 -13 -47 -22 -8 -9 -21
-13 -35 -10 -13 4 -26 1 -29 -4 -4 -6 -10 -8 -15 -5 -4 3 -10 -2 -14 -10 -3
-9 -18 -15 -38 -15 -18 0 -55 -11 -83 -25 -27 -14 -65 -28 -84 -30 -19 -3 -37
-8 -40 -13 -8 -11 -91 -32 -128 -32 -20 0 -24 -3 -14 -9 13 -9 -34 -21 -86
-22 -13 -1 -20 -6 -16 -12 4 -6 1 -7 -7 -2 -7 4 -15 3 -19 -2 -7 -11 -130 -43
-158 -42 -12 0 -8 5 12 14 17 8 23 14 13 15 -30 0 -48 -12 -49 -34 -1 -16 -2
-17 -6 -3 -2 9 -11 17 -19 17 -17 0 -19 -26 -1 -33 6 -3 1 -6 -13 -6 -15 -1
-30 3 -36 9 -9 9 -489 -141 -506 -158 -5 -5 21 -23 56 -41 36 -18 72 -41 82
-52 9 -10 23 -19 29 -19 7 0 15 -9 18 -20 3 -11 12 -20 21 -20 14 0 16 -16 16
-114 0 -63 3 -117 8 -119 4 -3 54 11 112 29 58 19 121 36 140 39 29 4 37 11
45 38 10 31 9 32 -15 32 -18 0 -26 6 -28 23 -2 12 -10 22 -17 22 -8 0 -24 14
-36 31 -22 31 -22 32 -3 46 17 14 16 15 -21 10 -39 -4 -93 8 -82 19 8 9 647
225 962 326 340 109 1226 405 1570 523 138 48 284 97 325 110 177 56 780 258
955 321 279 99 685 233 714 236 23 3 26 -1 26 -29 1 -20 -4 -33 -12 -33 -28 0
-7 -54 41 -106 19 -21 34 -40 32 -42 -2 -2 -20 4 -40 12 -45 19 -47 4 -6 -35
36 -35 61 -36 94 -6 14 13 53 32 86 42 52 16 66 25 91 62 32 46 79 141 79 160
0 9 -82 73 -94 73 -2 0 -34 18 -70 40 -36 22 -68 40 -71 40 -3 0 -23 11 -43
25 -41 28 -52 29 -102 11z m24 -21 c3 -8 1 -15 -3 -15 -5 0 -11 7 -15 15 -3 8
-1 15 3 15 5 0 11 -7 15 -15z m43 9 c-3 -3 -12 -4 -19 -1 -8 3 -5 6 6 6 11 1
17 -2 13 -5z m-4457 -1483 c0 -6 -4 -13 -10 -16 -5 -3 -10 1 -10 9 0 9 5 16
10 16 6 0 10 -4 10 -9z"/>
<path d="M10278 3963 c7 -3 16 -2 19 1 4 3 -2 6 -13 5 -11 0 -14 -3 -6 -6z"/>
<path d="M10996 3709 c43 -46 61 -53 73 -30 9 17 5 22 -32 40 -62 30 -76 26
-41 -10z"/>
<path d="M18310 2965 c0 -2 15 -12 33 -20 l32 -16 -25 20 c-24 20 -40 26 -40
16z"/>
<path d="M6005 2920 c-3 -5 -2 -10 4 -10 5 0 13 5 16 10 3 6 2 10 -4 10 -5 0
-13 -4 -16 -10z"/>
<path d="M10375 2175 c-221 -74 -388 -123 -530 -156 -93 -21 -188 -43 -210
-49 -22 -5 -218 -51 -435 -100 -612 -140 -544 -119 -553 -165 -5 -22 -12 -46
-16 -54 -6 -13 -62 -32 -526 -179 -121 -39 -332 -106 -470 -150 l-250 -79 -6
-99 -5 -99 -2 80 c-3 111 -4 112 -93 86 -41 -12 -86 -27 -101 -33 l-28 -10 -1
-212 c-1 -116 -2 -218 -3 -226 -2 -8 -3 -95 -4 -194 l-2 -179 -40 7 c-26 4
-40 2 -40 -4 0 -6 -5 -8 -11 -5 -7 5 -9 -31 -5 -123 4 -109 9 -136 27 -166 16
-27 26 -35 39 -31 13 4 20 -1 25 -15 6 -18 14 -20 111 -20 l104 0 0 50 c0 30
4 50 11 50 7 0 10 -18 7 -50 l-3 -50 1512 0 1512 0 4 88 3 87 2 -87 c2 -81 4
-88 22 -88 20 0 20 7 20 538 1 424 3 541 14 554 14 19 13 52 -3 203 -7 60 -11
260 -9 495 2 438 7 410 -67 385z m32 -87 c-3 -8 -6 -5 -6 6 -1 11 2 17 5 13 3
-3 4 -12 1 -19z m-1570 -345 c-3 -10 -5 -4 -5 12 0 17 2 24 5 18 2 -7 2 -21 0
-30z m1278 -33 c-3 -5 -10 -10 -16 -10 -5 0 -9 5 -9 10 0 6 7 10 16 10 8 0 12
-4 9 -10z m-45 -10 c-8 -5 -24 -9 -35 -9 -16 1 -16 2 5 9 35 11 48 11 30 0z
m-63 -16 c-3 -3 -12 -4 -19 -1 -8 3 -5 6 6 6 11 1 17 -2 13 -5z m400 -231 c-2
-16 -6 -35 -10 -43 -4 -8 -8 -37 -10 -65 -3 -44 -4 -42 -5 17 -1 37 3 79 10
93 15 32 19 32 15 -2z m8 -194 c19 -29 0 -109 -25 -109 -10 0 -23 98 -15 110
8 13 32 13 40 -1z m-3035 -319 c0 -16 -4 -30 -10 -30 -5 0 -10 14 -10 30 0 17
5 30 10 30 6 0 10 -13 10 -30z m-5 -100 c-3 -70 -15 -76 -15 -7 0 32 4 57 9
57 4 0 7 -23 6 -50z m-8 -172 c-2 -18 -4 -6 -4 27 0 33 2 48 4 33 2 -15 2 -42
0 -60z m3036 69 c3 -8 1 -20 -4 -28 -6 -10 -9 -7 -9 14 0 29 5 35 13 14z m-1
-133 l-10 -49 -1 60 c-1 41 2 56 9 49 8 -8 8 -27 2 -60z m-3035 -96 c-2 -24
-4 -5 -4 42 0 47 2 66 4 43 2 -24 2 -62 0 -85z m3030 -60 c-2 -13 -4 -5 -4 17
-1 22 1 32 4 23 2 -10 2 -28 0 -40z m-3030 -175 c-2 -32 -3 -8 -3 52 0 61 1
87 3 58 2 -29 2 -78 0 -110z m3030 -30 c-2 -21 -4 -4 -4 37 0 41 2 58 4 38 2
-21 2 -55 0 -75z m-3028 -85 c0 -31 -3 -37 -8 -24 -7 18 -3 66 5 66 2 0 4 -19
3 -42z"/>
<path d="M18310 1450 c0 -5 5 -10 11 -10 5 0 7 5 4 10 -3 6 -8 10 -11 10 -2 0
-4 -4 -4 -10z"/>
</g>
</svg>
